<svg width="150" height="32" viewBox="0 0 150 32" fill="none" xmlns="http://www.w3.org/2000/svg">
<g clip-path="url(#clip0_728_3558)">
<path d="M30.4138 20.7432V12.9477C30.4138 12.9477 30.4138 12.7532 30.1944 12.7532C29.9999 12.7532 29.9999 12.9477 29.9999 12.9477V20.7432C29.9999 20.7432 29.9999 20.9178 30.2143 20.9178C30.4338 20.9178 30.4138 20.7432 30.4138 20.7432Z" fill="white"/>
<path d="M0 32H149.297V0H0V32ZM13.2768 20.9177C13.4713 20.9177 13.4713 20.7631 13.4713 20.7631V12.2943H14.015V20.7431C14.015 20.7431 14.0599 21.3965 13.3167 21.3965C12.5736 21.3965 12.5786 20.7431 12.5786 20.7431V12.2943H13.1222V20.7232C13.1222 20.7232 13.0773 20.9177 13.2768 20.9177ZM32.1347 22.7431H11.3616V21.8703H32.1347V22.7431ZM16 21.3965V12.2943H16.4339L16.9776 17.1571V12.2943H17.4364V21.3965H16.9776L16.4339 15.9252V21.3965H16ZM20.6584 16.3042V16.803H20.0698V20.9177H20.8529V21.3965H19.4613V12.2943H20.6584V12.7531H20.0698V16.3042H20.6584ZM23.3466 20.9077C23.4863 20.9177 23.4863 20.7431 23.4863 20.7431V18.6434C23.4863 17.7606 22.6384 15.8354 22.6384 14.6933V12.9526C22.6384 12.9526 22.6384 12.3192 23.3566 12.2993C24.0748 12.2793 24.0549 12.9526 24.0549 12.9526V14.9975H23.4913V12.9526C23.4913 12.9526 23.4913 12.7581 23.3367 12.7581C23.182 12.7581 23.207 12.9526 23.207 12.9526V14.9975C23.207 15.6708 24.0549 17.7057 24.0549 18.7781C24.0549 19.2219 24.0549 20.7481 24.0549 20.7481C24.0549 20.7481 24.0549 21.4015 23.3367 21.4015C22.6185 21.4015 22.6384 20.7481 22.6384 20.7481V18.4638H23.207V20.7481C23.207 20.7431 23.207 20.8978 23.3466 20.9077ZM26.7531 12.7531C26.5586 12.7531 26.5586 12.9476 26.5586 12.9476V20.7431C26.5586 20.7431 26.5935 20.9177 26.7531 20.9177C26.9277 20.9177 26.9277 20.7431 26.9277 20.7431V18.4589H27.4713V20.7431C27.4713 20.7431 27.4713 21.3965 26.7531 21.3965C26.0349 21.3965 26.0549 20.7431 26.0549 20.7431V12.9476C26.0549 12.9476 26.0549 12.2943 26.7531 12.2943C27.4514 12.2943 27.4713 12.9476 27.4713 12.9476V14.9925H26.9277V12.9476C26.9277 12.9476 26.9277 12.7531 26.7531 12.7531ZM29.4564 20.7431V12.9476C29.4564 12.9476 29.4564 12.2943 30.2195 12.2943C30.9825 12.2943 30.9377 12.9476 30.9377 12.9476V20.7431C30.9377 20.7431 30.9377 21.3965 30.1746 21.3965C29.4564 21.3965 29.4564 20.7431 29.4564 20.7431ZM11.3616 10.8928H32.1347V11.7656H11.3616V10.8928ZM13.0374 10.3342L21.7456 7.67581L30.3242 10.3342H27.8005L21.7456 8.48379L15.5611 10.3342H13.0374V10.3342ZM11.3616 9.39651L21.7456 6.19451L32.1347 9.39651V10.3342L21.6808 7.17706L11.3616 10.3342V9.39651V9.39651ZM10.1845 23.3516H33.2668V24.2195H10.1845V23.3516ZM34.399 25.7057H9.09726V24.8329H34.399V25.7057ZM148.394 31.0973H43.4913V0.902743H148.394V31.0973V31.0973Z" fill="white"/>
<path d="M124.599 19.3915C123.935 20.0498 123.058 20.4139 122.12 20.4139C120.185 20.4139 118.609 18.8379 118.609 16.9027C118.609 14.9676 120.18 13.3915 122.12 13.3915C123.048 13.3915 123.92 13.7506 124.584 14.404L124.674 14.4937L126.27 11.0972L126.21 11.0523C125.003 10.1995 123.581 9.74561 122.1 9.74561C118.17 9.74561 114.978 12.9426 114.978 16.8678C114.978 20.798 118.175 23.99 122.1 23.99C123.576 23.99 124.993 23.5411 126.2 22.6883L126.26 22.6434L124.689 19.3017L124.599 19.3915Z" fill="white"/>
<path d="M134.713 20.424C132.783 20.424 131.212 18.8529 131.212 16.9228C131.212 14.9926 132.783 13.4215 134.713 13.4215C136.643 13.4215 138.214 14.9926 138.214 16.9228C138.214 18.8529 136.643 20.424 134.713 20.424ZM134.693 9.77563C130.773 9.77563 127.581 12.9677 127.581 16.8879C127.581 20.8081 130.773 24.0001 134.693 24.0001C138.613 24.0001 141.805 20.8081 141.805 16.8879C141.805 12.9677 138.618 9.77563 134.693 9.77563Z" fill="white"/>
<path d="M56.893 10.1995V17.5511C56.893 18.1496 56.9528 19.0773 57.6411 19.7057C57.9404 19.975 58.479 20.3341 59.4366 20.3341C60.2446 20.3341 60.873 20.0648 61.2621 19.7057C61.8905 19.1072 61.9803 18.2094 61.9803 17.5511V10.1995H66.2845V17.97C66.2845 19.4962 66.1349 20.9276 64.7882 22.2443C63.2621 23.7406 61.0227 23.98 59.4366 23.98C57.7907 23.98 55.5813 23.7406 54.0551 22.2443C52.8281 21.0473 52.5887 19.7057 52.5887 18.2394V10.1995H56.893Z" fill="white"/>
<path d="M69.6261 10.1994H73.9303V11.7855C75.247 10.1097 76.7982 9.84033 78.055 9.84033C79.2221 9.84033 80.7483 10.0498 81.8805 11.187C83.1373 12.4438 83.2271 14.0249 83.2271 15.1022V23.5311H78.9229V16.6882C78.9229 15.8204 78.8929 14.7181 78.2046 14.0299C77.8755 13.7007 77.3368 13.4314 76.5637 13.4314C75.666 13.4314 75.0974 13.7905 74.7682 14.1496C74.05 14.8678 73.9303 15.8254 73.9303 16.6882V23.5361H69.6261V10.1994Z" fill="white"/>
<path d="M96.2594 15.0424C96.2295 14.9227 96.02 14.0848 95.3916 13.4863C94.9128 13.0374 94.2245 12.7381 93.3567 12.7381C92.2494 12.7381 91.5911 13.187 91.1721 13.606C90.843 13.9651 90.5437 14.4439 90.424 15.0424H96.2594V15.0424ZM100.234 17.6109H90.2794C90.2794 18.3291 90.5487 19.2868 91.0874 19.8853C91.7457 20.6035 92.6435 20.7232 93.2968 20.7232C93.9253 20.7232 94.5836 20.6035 95.0325 20.3341C95.0923 20.3042 95.6011 19.975 95.9602 19.2269L100.025 19.6459C99.4265 21.5262 98.2295 22.5137 97.4564 22.9925C96.1697 23.7705 94.7332 23.98 93.242 23.98C91.242 23.98 89.4764 23.6209 87.9203 22.0648C86.7532 20.8977 85.9153 19.1371 85.9153 16.9227C85.9153 15.0124 86.6036 13.0374 87.9502 11.6608C89.5662 10.0449 91.5662 9.74561 93.0624 9.74561C94.5587 9.74561 96.7083 10.0149 98.3542 11.7506C99.9402 13.4264 100.239 15.5162 100.239 17.1621V17.6109H100.234Z" fill="white"/>
<path d="M111.087 13.6059C110.429 13.2168 109.561 12.8577 108.728 12.8577C108.279 12.8577 107.77 12.9774 107.501 13.2467C107.351 13.3964 107.232 13.6358 107.232 13.8453C107.232 14.1445 107.441 14.3241 107.651 14.4438C107.95 14.6233 108.399 14.7131 108.937 14.8926L110.075 15.2517C110.823 15.4911 111.601 15.7904 112.284 16.4188C113.062 17.137 113.331 17.945 113.331 18.9625C113.331 20.728 112.553 21.8602 111.955 22.4587C110.638 23.7754 109.022 23.9799 107.621 23.9799C105.825 23.9799 103.885 23.5909 102.149 22.0697L103.975 19.1719C104.394 19.531 104.992 19.95 105.441 20.1595C106.04 20.4587 106.668 20.5784 107.237 20.5784C107.506 20.5784 108.194 20.5784 108.583 20.2792C108.853 20.0697 109.032 19.7405 109.032 19.4113C109.032 19.1719 108.942 18.8727 108.553 18.6333C108.254 18.4537 107.865 18.334 107.237 18.1545L106.159 17.8253C105.381 17.5859 104.573 17.1669 104.005 16.5984C103.376 15.94 103.047 15.1919 103.047 14.1744C103.047 12.8876 103.556 11.8153 104.334 11.0971C105.531 9.98989 107.142 9.75049 108.369 9.75049C110.339 9.75049 111.715 10.2592 112.793 10.8876L111.087 13.6059Z" fill="white"/>
</g>
<defs>
<clipPath id="clip0_728_3558">
<rect width="149.297" height="32" fill="white"/>
</clipPath>
</defs>
</svg>
